<mxfile host="app.diagrams.net" agent="Mozilla/5.0 (Windows NT 10.0; Win64; x64) AppleWebKit/537.36 (KHTML, like Gecko) Chrome/131.0.0.0 Safari/537.36 Edg/131.0.0.0" version="25.0.3" pages="4">
  <diagram name="21 jun" id="Yrmjew3v5zaLXQ0DPAPK">
    <mxGraphModel dx="1426" dy="757" grid="1" gridSize="10" guides="1" tooltips="1" connect="1" arrows="1" fold="1" page="1" pageScale="1" pageWidth="1169" pageHeight="827" math="0" shadow="0">
      <root>
        <mxCell id="3xqhF2YdJrPBeyhhvGX_-0" />
        <mxCell id="3xqhF2YdJrPBeyhhvGX_-1" parent="3xqhF2YdJrPBeyhhvGX_-0" />
        <mxCell id="3xqhF2YdJrPBeyhhvGX_-2" value="" style="endArrow=none;html=1;rounded=0;" edge="1" parent="3xqhF2YdJrPBeyhhvGX_-1">
          <mxGeometry width="50" height="50" relative="1" as="geometry">
            <mxPoint x="120" y="280" as="sourcePoint" />
            <mxPoint x="120" y="120" as="targetPoint" />
          </mxGeometry>
        </mxCell>
        <mxCell id="3xqhF2YdJrPBeyhhvGX_-3" value="" style="endArrow=classic;html=1;rounded=0;endFill=1;" edge="1" parent="3xqhF2YdJrPBeyhhvGX_-1">
          <mxGeometry width="50" height="50" relative="1" as="geometry">
            <mxPoint x="120" y="280" as="sourcePoint" />
            <mxPoint x="1110" y="280" as="targetPoint" />
          </mxGeometry>
        </mxCell>
        <mxCell id="3xqhF2YdJrPBeyhhvGX_-4" value="3" style="text;html=1;align=center;verticalAlign=middle;whiteSpace=wrap;rounded=0;" vertex="1" parent="3xqhF2YdJrPBeyhhvGX_-1">
          <mxGeometry x="230" y="280" width="20" height="30" as="geometry" />
        </mxCell>
        <mxCell id="3xqhF2YdJrPBeyhhvGX_-5" value="6" style="text;html=1;align=center;verticalAlign=middle;whiteSpace=wrap;rounded=0;" vertex="1" parent="3xqhF2YdJrPBeyhhvGX_-1">
          <mxGeometry x="350" y="280" width="20" height="30" as="geometry" />
        </mxCell>
        <mxCell id="3xqhF2YdJrPBeyhhvGX_-6" value="9" style="text;html=1;align=center;verticalAlign=middle;whiteSpace=wrap;rounded=0;" vertex="1" parent="3xqhF2YdJrPBeyhhvGX_-1">
          <mxGeometry x="470" y="280" width="20" height="30" as="geometry" />
        </mxCell>
        <mxCell id="3xqhF2YdJrPBeyhhvGX_-7" value="12" style="text;html=1;align=center;verticalAlign=middle;whiteSpace=wrap;rounded=0;" vertex="1" parent="3xqhF2YdJrPBeyhhvGX_-1">
          <mxGeometry x="590" y="280" width="20" height="30" as="geometry" />
        </mxCell>
        <mxCell id="3xqhF2YdJrPBeyhhvGX_-8" value="15" style="text;html=1;align=center;verticalAlign=middle;whiteSpace=wrap;rounded=0;" vertex="1" parent="3xqhF2YdJrPBeyhhvGX_-1">
          <mxGeometry x="710" y="280" width="20" height="30" as="geometry" />
        </mxCell>
        <mxCell id="3xqhF2YdJrPBeyhhvGX_-9" value="18" style="text;html=1;align=center;verticalAlign=middle;whiteSpace=wrap;rounded=0;" vertex="1" parent="3xqhF2YdJrPBeyhhvGX_-1">
          <mxGeometry x="830" y="280" width="20" height="30" as="geometry" />
        </mxCell>
        <mxCell id="3xqhF2YdJrPBeyhhvGX_-10" value="21" style="text;html=1;align=center;verticalAlign=middle;whiteSpace=wrap;rounded=0;" vertex="1" parent="3xqhF2YdJrPBeyhhvGX_-1">
          <mxGeometry x="950" y="280" width="20" height="30" as="geometry" />
        </mxCell>
        <mxCell id="3xqhF2YdJrPBeyhhvGX_-11" value="24" style="text;html=1;align=center;verticalAlign=middle;whiteSpace=wrap;rounded=0;" vertex="1" parent="3xqhF2YdJrPBeyhhvGX_-1">
          <mxGeometry x="1070" y="280" width="20" height="30" as="geometry" />
        </mxCell>
        <mxCell id="3xqhF2YdJrPBeyhhvGX_-12" value="" style="endArrow=none;dashed=1;html=1;dashPattern=1 3;strokeWidth=2;rounded=0;" edge="1" parent="3xqhF2YdJrPBeyhhvGX_-1">
          <mxGeometry width="50" height="50" relative="1" as="geometry">
            <mxPoint x="120" y="160" as="sourcePoint" />
            <mxPoint x="1110" y="160" as="targetPoint" />
          </mxGeometry>
        </mxCell>
        <mxCell id="3xqhF2YdJrPBeyhhvGX_-13" value="" style="endArrow=none;dashed=1;html=1;dashPattern=1 3;strokeWidth=2;rounded=0;" edge="1" parent="3xqhF2YdJrPBeyhhvGX_-1">
          <mxGeometry width="50" height="50" relative="1" as="geometry">
            <mxPoint x="120" y="200" as="sourcePoint" />
            <mxPoint x="1110" y="200" as="targetPoint" />
          </mxGeometry>
        </mxCell>
        <mxCell id="3xqhF2YdJrPBeyhhvGX_-14" value="" style="endArrow=none;dashed=1;html=1;dashPattern=1 3;strokeWidth=2;rounded=0;" edge="1" parent="3xqhF2YdJrPBeyhhvGX_-1">
          <mxGeometry width="50" height="50" relative="1" as="geometry">
            <mxPoint x="120" y="240" as="sourcePoint" />
            <mxPoint x="1110" y="240" as="targetPoint" />
          </mxGeometry>
        </mxCell>
        <mxCell id="3xqhF2YdJrPBeyhhvGX_-15" value="" style="rounded=0;whiteSpace=wrap;html=1;fillColor=#dae8fc;strokeColor=#6c8ebf;" vertex="1" parent="3xqhF2YdJrPBeyhhvGX_-1">
          <mxGeometry x="380" y="140" width="80" height="20" as="geometry" />
        </mxCell>
        <mxCell id="3xqhF2YdJrPBeyhhvGX_-16" value="" style="rounded=0;whiteSpace=wrap;html=1;fillColor=#dae8fc;strokeColor=#6c8ebf;" vertex="1" parent="3xqhF2YdJrPBeyhhvGX_-1">
          <mxGeometry x="800" y="140" width="180" height="20" as="geometry" />
        </mxCell>
        <mxCell id="3xqhF2YdJrPBeyhhvGX_-17" value="" style="rounded=0;whiteSpace=wrap;html=1;fillColor=#fff2cc;strokeColor=#d6b656;" vertex="1" parent="3xqhF2YdJrPBeyhhvGX_-1">
          <mxGeometry x="180" y="180" width="160" height="20" as="geometry" />
        </mxCell>
        <mxCell id="3xqhF2YdJrPBeyhhvGX_-18" value="" style="rounded=0;whiteSpace=wrap;html=1;fillColor=#fff2cc;strokeColor=#d6b656;" vertex="1" parent="3xqhF2YdJrPBeyhhvGX_-1">
          <mxGeometry x="990" y="180" width="90" height="20" as="geometry" />
        </mxCell>
        <mxCell id="3xqhF2YdJrPBeyhhvGX_-21" value="Plage autorisÃ©e" style="text;html=1;align=right;verticalAlign=middle;whiteSpace=wrap;rounded=0;" vertex="1" parent="3xqhF2YdJrPBeyhhvGX_-1">
          <mxGeometry x="30" y="140" width="90" height="30" as="geometry" />
        </mxCell>
        <mxCell id="3xqhF2YdJrPBeyhhvGX_-22" value="Heures" style="text;html=1;align=center;verticalAlign=middle;whiteSpace=wrap;rounded=0;" vertex="1" parent="3xqhF2YdJrPBeyhhvGX_-1">
          <mxGeometry x="1046" y="256" width="90" height="30" as="geometry" />
        </mxCell>
        <mxCell id="3xqhF2YdJrPBeyhhvGX_-23" value="Horloge astro" style="text;html=1;align=right;verticalAlign=middle;whiteSpace=wrap;rounded=0;" vertex="1" parent="3xqhF2YdJrPBeyhhvGX_-1">
          <mxGeometry x="30" y="180" width="90" height="30" as="geometry" />
        </mxCell>
        <mxCell id="3xqhF2YdJrPBeyhhvGX_-24" value="Eclairage effectif" style="text;html=1;align=right;verticalAlign=middle;whiteSpace=wrap;rounded=0;" vertex="1" parent="3xqhF2YdJrPBeyhhvGX_-1">
          <mxGeometry x="10" y="220" width="110" height="30" as="geometry" />
        </mxCell>
        <mxCell id="3xqhF2YdJrPBeyhhvGX_-29" value="21 Juin" style="text;html=1;align=center;verticalAlign=middle;whiteSpace=wrap;rounded=0;fontStyle=1;fontSize=14;" vertex="1" parent="3xqhF2YdJrPBeyhhvGX_-1">
          <mxGeometry x="120" y="90" width="990" height="30" as="geometry" />
        </mxCell>
      </root>
    </mxGraphModel>
  </diagram>
  <diagram name="21-sept" id="1e-KpW_djO2zxqXXAAbK">
    <mxGraphModel dx="1426" dy="757" grid="1" gridSize="10" guides="1" tooltips="1" connect="1" arrows="1" fold="1" page="1" pageScale="1" pageWidth="1169" pageHeight="827" math="0" shadow="0">
      <root>
        <mxCell id="TMDHw2rMWQjGt9Khwdie-0" />
        <mxCell id="TMDHw2rMWQjGt9Khwdie-1" parent="TMDHw2rMWQjGt9Khwdie-0" />
        <mxCell id="TMDHw2rMWQjGt9Khwdie-2" value="" style="endArrow=none;html=1;rounded=0;" edge="1" parent="TMDHw2rMWQjGt9Khwdie-1">
          <mxGeometry width="50" height="50" relative="1" as="geometry">
            <mxPoint x="120" y="280" as="sourcePoint" />
            <mxPoint x="120" y="120" as="targetPoint" />
          </mxGeometry>
        </mxCell>
        <mxCell id="TMDHw2rMWQjGt9Khwdie-3" value="" style="endArrow=classic;html=1;rounded=0;endFill=1;" edge="1" parent="TMDHw2rMWQjGt9Khwdie-1">
          <mxGeometry width="50" height="50" relative="1" as="geometry">
            <mxPoint x="120" y="280" as="sourcePoint" />
            <mxPoint x="1110" y="280" as="targetPoint" />
          </mxGeometry>
        </mxCell>
        <mxCell id="TMDHw2rMWQjGt9Khwdie-4" value="3" style="text;html=1;align=center;verticalAlign=middle;whiteSpace=wrap;rounded=0;" vertex="1" parent="TMDHw2rMWQjGt9Khwdie-1">
          <mxGeometry x="230" y="280" width="20" height="30" as="geometry" />
        </mxCell>
        <mxCell id="TMDHw2rMWQjGt9Khwdie-5" value="6" style="text;html=1;align=center;verticalAlign=middle;whiteSpace=wrap;rounded=0;" vertex="1" parent="TMDHw2rMWQjGt9Khwdie-1">
          <mxGeometry x="350" y="280" width="20" height="30" as="geometry" />
        </mxCell>
        <mxCell id="TMDHw2rMWQjGt9Khwdie-6" value="9" style="text;html=1;align=center;verticalAlign=middle;whiteSpace=wrap;rounded=0;" vertex="1" parent="TMDHw2rMWQjGt9Khwdie-1">
          <mxGeometry x="470" y="280" width="20" height="30" as="geometry" />
        </mxCell>
        <mxCell id="TMDHw2rMWQjGt9Khwdie-7" value="12" style="text;html=1;align=center;verticalAlign=middle;whiteSpace=wrap;rounded=0;" vertex="1" parent="TMDHw2rMWQjGt9Khwdie-1">
          <mxGeometry x="590" y="280" width="20" height="30" as="geometry" />
        </mxCell>
        <mxCell id="TMDHw2rMWQjGt9Khwdie-8" value="15" style="text;html=1;align=center;verticalAlign=middle;whiteSpace=wrap;rounded=0;" vertex="1" parent="TMDHw2rMWQjGt9Khwdie-1">
          <mxGeometry x="710" y="280" width="20" height="30" as="geometry" />
        </mxCell>
        <mxCell id="TMDHw2rMWQjGt9Khwdie-9" value="18" style="text;html=1;align=center;verticalAlign=middle;whiteSpace=wrap;rounded=0;" vertex="1" parent="TMDHw2rMWQjGt9Khwdie-1">
          <mxGeometry x="830" y="280" width="20" height="30" as="geometry" />
        </mxCell>
        <mxCell id="TMDHw2rMWQjGt9Khwdie-10" value="21" style="text;html=1;align=center;verticalAlign=middle;whiteSpace=wrap;rounded=0;" vertex="1" parent="TMDHw2rMWQjGt9Khwdie-1">
          <mxGeometry x="950" y="280" width="20" height="30" as="geometry" />
        </mxCell>
        <mxCell id="TMDHw2rMWQjGt9Khwdie-11" value="24" style="text;html=1;align=center;verticalAlign=middle;whiteSpace=wrap;rounded=0;" vertex="1" parent="TMDHw2rMWQjGt9Khwdie-1">
          <mxGeometry x="1070" y="280" width="20" height="30" as="geometry" />
        </mxCell>
        <mxCell id="TMDHw2rMWQjGt9Khwdie-12" value="" style="endArrow=none;dashed=1;html=1;dashPattern=1 3;strokeWidth=2;rounded=0;" edge="1" parent="TMDHw2rMWQjGt9Khwdie-1">
          <mxGeometry width="50" height="50" relative="1" as="geometry">
            <mxPoint x="120" y="160" as="sourcePoint" />
            <mxPoint x="1110" y="160" as="targetPoint" />
          </mxGeometry>
        </mxCell>
        <mxCell id="TMDHw2rMWQjGt9Khwdie-13" value="" style="endArrow=none;dashed=1;html=1;dashPattern=1 3;strokeWidth=2;rounded=0;" edge="1" parent="TMDHw2rMWQjGt9Khwdie-1">
          <mxGeometry width="50" height="50" relative="1" as="geometry">
            <mxPoint x="120" y="200" as="sourcePoint" />
            <mxPoint x="1110" y="200" as="targetPoint" />
          </mxGeometry>
        </mxCell>
        <mxCell id="TMDHw2rMWQjGt9Khwdie-14" value="" style="endArrow=none;dashed=1;html=1;dashPattern=1 3;strokeWidth=2;rounded=0;" edge="1" parent="TMDHw2rMWQjGt9Khwdie-1">
          <mxGeometry width="50" height="50" relative="1" as="geometry">
            <mxPoint x="120" y="240" as="sourcePoint" />
            <mxPoint x="1110" y="240" as="targetPoint" />
          </mxGeometry>
        </mxCell>
        <mxCell id="TMDHw2rMWQjGt9Khwdie-15" value="" style="rounded=0;whiteSpace=wrap;html=1;fillColor=#dae8fc;strokeColor=#6c8ebf;" vertex="1" parent="TMDHw2rMWQjGt9Khwdie-1">
          <mxGeometry x="380" y="140" width="80" height="20" as="geometry" />
        </mxCell>
        <mxCell id="TMDHw2rMWQjGt9Khwdie-16" value="" style="rounded=0;whiteSpace=wrap;html=1;fillColor=#dae8fc;strokeColor=#6c8ebf;" vertex="1" parent="TMDHw2rMWQjGt9Khwdie-1">
          <mxGeometry x="800" y="140" width="180" height="20" as="geometry" />
        </mxCell>
        <mxCell id="TMDHw2rMWQjGt9Khwdie-17" value="" style="rounded=0;whiteSpace=wrap;html=1;fillColor=#fff2cc;strokeColor=#d6b656;" vertex="1" parent="TMDHw2rMWQjGt9Khwdie-1">
          <mxGeometry x="250" y="180" width="160" height="20" as="geometry" />
        </mxCell>
        <mxCell id="TMDHw2rMWQjGt9Khwdie-18" value="" style="rounded=0;whiteSpace=wrap;html=1;fillColor=#fff2cc;strokeColor=#d6b656;" vertex="1" parent="TMDHw2rMWQjGt9Khwdie-1">
          <mxGeometry x="910" y="180" width="170" height="20" as="geometry" />
        </mxCell>
        <mxCell id="TMDHw2rMWQjGt9Khwdie-19" value="" style="rounded=0;whiteSpace=wrap;html=1;fillColor=#d5e8d4;strokeColor=#82b366;" vertex="1" parent="TMDHw2rMWQjGt9Khwdie-1">
          <mxGeometry x="380" y="220" width="30" height="20" as="geometry" />
        </mxCell>
        <mxCell id="TMDHw2rMWQjGt9Khwdie-20" value="" style="rounded=0;whiteSpace=wrap;html=1;fillColor=#d5e8d4;strokeColor=#82b366;" vertex="1" parent="TMDHw2rMWQjGt9Khwdie-1">
          <mxGeometry x="910" y="220" width="70" height="20" as="geometry" />
        </mxCell>
        <mxCell id="TMDHw2rMWQjGt9Khwdie-21" value="Plage autorisÃ©e" style="text;html=1;align=right;verticalAlign=middle;whiteSpace=wrap;rounded=0;" vertex="1" parent="TMDHw2rMWQjGt9Khwdie-1">
          <mxGeometry x="30" y="140" width="90" height="30" as="geometry" />
        </mxCell>
        <mxCell id="TMDHw2rMWQjGt9Khwdie-22" value="Heures" style="text;html=1;align=center;verticalAlign=middle;whiteSpace=wrap;rounded=0;" vertex="1" parent="TMDHw2rMWQjGt9Khwdie-1">
          <mxGeometry x="1046" y="256" width="90" height="30" as="geometry" />
        </mxCell>
        <mxCell id="TMDHw2rMWQjGt9Khwdie-23" value="Horloge astro" style="text;html=1;align=right;verticalAlign=middle;whiteSpace=wrap;rounded=0;" vertex="1" parent="TMDHw2rMWQjGt9Khwdie-1">
          <mxGeometry x="30" y="180" width="90" height="30" as="geometry" />
        </mxCell>
        <mxCell id="TMDHw2rMWQjGt9Khwdie-24" value="Eclairage effectif" style="text;html=1;align=right;verticalAlign=middle;whiteSpace=wrap;rounded=0;" vertex="1" parent="TMDHw2rMWQjGt9Khwdie-1">
          <mxGeometry x="10" y="220" width="110" height="30" as="geometry" />
        </mxCell>
        <mxCell id="TMDHw2rMWQjGt9Khwdie-25" value="" style="endArrow=none;dashed=1;html=1;dashPattern=1 3;strokeWidth=2;rounded=0;" edge="1" parent="TMDHw2rMWQjGt9Khwdie-1">
          <mxGeometry width="50" height="50" relative="1" as="geometry">
            <mxPoint x="380" y="240" as="sourcePoint" />
            <mxPoint x="380" y="160" as="targetPoint" />
          </mxGeometry>
        </mxCell>
        <mxCell id="TMDHw2rMWQjGt9Khwdie-26" value="" style="endArrow=none;dashed=1;html=1;dashPattern=1 3;strokeWidth=2;rounded=0;" edge="1" parent="TMDHw2rMWQjGt9Khwdie-1">
          <mxGeometry width="50" height="50" relative="1" as="geometry">
            <mxPoint x="410" y="240" as="sourcePoint" />
            <mxPoint x="410" y="160" as="targetPoint" />
          </mxGeometry>
        </mxCell>
        <mxCell id="TMDHw2rMWQjGt9Khwdie-27" value="" style="endArrow=none;dashed=1;html=1;dashPattern=1 3;strokeWidth=2;rounded=0;" edge="1" parent="TMDHw2rMWQjGt9Khwdie-1">
          <mxGeometry width="50" height="50" relative="1" as="geometry">
            <mxPoint x="909" y="238.5" as="sourcePoint" />
            <mxPoint x="910" y="160" as="targetPoint" />
          </mxGeometry>
        </mxCell>
        <mxCell id="TMDHw2rMWQjGt9Khwdie-28" value="" style="endArrow=none;dashed=1;html=1;dashPattern=1 3;strokeWidth=2;rounded=0;" edge="1" parent="TMDHw2rMWQjGt9Khwdie-1">
          <mxGeometry width="50" height="50" relative="1" as="geometry">
            <mxPoint x="979" y="238.5" as="sourcePoint" />
            <mxPoint x="980" y="160" as="targetPoint" />
          </mxGeometry>
        </mxCell>
        <mxCell id="TMDHw2rMWQjGt9Khwdie-29" value="21 Septembre" style="text;html=1;align=center;verticalAlign=middle;whiteSpace=wrap;rounded=0;fontStyle=1;fontSize=14;" vertex="1" parent="TMDHw2rMWQjGt9Khwdie-1">
          <mxGeometry x="120" y="90" width="990" height="30" as="geometry" />
        </mxCell>
      </root>
    </mxGraphModel>
  </diagram>
  <diagram name="21-dec" id="1A5gc6bmoNTetZlwNplA">
    <mxGraphModel dx="1426" dy="757" grid="1" gridSize="10" guides="1" tooltips="1" connect="1" arrows="1" fold="1" page="1" pageScale="1" pageWidth="1169" pageHeight="827" math="0" shadow="0">
      <root>
        <mxCell id="0" />
        <mxCell id="1" parent="0" />
        <mxCell id="yHEGoj0oW-484SzzkgxT-1" value="" style="endArrow=none;html=1;rounded=0;" edge="1" parent="1">
          <mxGeometry width="50" height="50" relative="1" as="geometry">
            <mxPoint x="120" y="280" as="sourcePoint" />
            <mxPoint x="120" y="120" as="targetPoint" />
          </mxGeometry>
        </mxCell>
        <mxCell id="yHEGoj0oW-484SzzkgxT-2" value="" style="endArrow=classic;html=1;rounded=0;endFill=1;" edge="1" parent="1">
          <mxGeometry width="50" height="50" relative="1" as="geometry">
            <mxPoint x="120" y="280" as="sourcePoint" />
            <mxPoint x="1110" y="280" as="targetPoint" />
          </mxGeometry>
        </mxCell>
        <mxCell id="yHEGoj0oW-484SzzkgxT-3" value="3" style="text;html=1;align=center;verticalAlign=middle;whiteSpace=wrap;rounded=0;" vertex="1" parent="1">
          <mxGeometry x="230" y="280" width="20" height="30" as="geometry" />
        </mxCell>
        <mxCell id="yHEGoj0oW-484SzzkgxT-4" value="6" style="text;html=1;align=center;verticalAlign=middle;whiteSpace=wrap;rounded=0;" vertex="1" parent="1">
          <mxGeometry x="350" y="280" width="20" height="30" as="geometry" />
        </mxCell>
        <mxCell id="yHEGoj0oW-484SzzkgxT-5" value="9" style="text;html=1;align=center;verticalAlign=middle;whiteSpace=wrap;rounded=0;" vertex="1" parent="1">
          <mxGeometry x="470" y="280" width="20" height="30" as="geometry" />
        </mxCell>
        <mxCell id="yHEGoj0oW-484SzzkgxT-6" value="12" style="text;html=1;align=center;verticalAlign=middle;whiteSpace=wrap;rounded=0;" vertex="1" parent="1">
          <mxGeometry x="590" y="280" width="20" height="30" as="geometry" />
        </mxCell>
        <mxCell id="yHEGoj0oW-484SzzkgxT-7" value="15" style="text;html=1;align=center;verticalAlign=middle;whiteSpace=wrap;rounded=0;" vertex="1" parent="1">
          <mxGeometry x="710" y="280" width="20" height="30" as="geometry" />
        </mxCell>
        <mxCell id="yHEGoj0oW-484SzzkgxT-8" value="18" style="text;html=1;align=center;verticalAlign=middle;whiteSpace=wrap;rounded=0;" vertex="1" parent="1">
          <mxGeometry x="830" y="280" width="20" height="30" as="geometry" />
        </mxCell>
        <mxCell id="yHEGoj0oW-484SzzkgxT-9" value="21" style="text;html=1;align=center;verticalAlign=middle;whiteSpace=wrap;rounded=0;" vertex="1" parent="1">
          <mxGeometry x="950" y="280" width="20" height="30" as="geometry" />
        </mxCell>
        <mxCell id="yHEGoj0oW-484SzzkgxT-10" value="24" style="text;html=1;align=center;verticalAlign=middle;whiteSpace=wrap;rounded=0;" vertex="1" parent="1">
          <mxGeometry x="1070" y="280" width="20" height="30" as="geometry" />
        </mxCell>
        <mxCell id="yHEGoj0oW-484SzzkgxT-11" value="" style="endArrow=none;dashed=1;html=1;dashPattern=1 3;strokeWidth=2;rounded=0;" edge="1" parent="1">
          <mxGeometry width="50" height="50" relative="1" as="geometry">
            <mxPoint x="120" y="160" as="sourcePoint" />
            <mxPoint x="1110" y="160" as="targetPoint" />
          </mxGeometry>
        </mxCell>
        <mxCell id="yHEGoj0oW-484SzzkgxT-12" value="" style="endArrow=none;dashed=1;html=1;dashPattern=1 3;strokeWidth=2;rounded=0;" edge="1" parent="1">
          <mxGeometry width="50" height="50" relative="1" as="geometry">
            <mxPoint x="120" y="200" as="sourcePoint" />
            <mxPoint x="1110" y="200" as="targetPoint" />
          </mxGeometry>
        </mxCell>
        <mxCell id="yHEGoj0oW-484SzzkgxT-13" value="" style="endArrow=none;dashed=1;html=1;dashPattern=1 3;strokeWidth=2;rounded=0;" edge="1" parent="1">
          <mxGeometry width="50" height="50" relative="1" as="geometry">
            <mxPoint x="120" y="240" as="sourcePoint" />
            <mxPoint x="1110" y="240" as="targetPoint" />
          </mxGeometry>
        </mxCell>
        <mxCell id="yHEGoj0oW-484SzzkgxT-14" value="" style="rounded=0;whiteSpace=wrap;html=1;fillColor=#dae8fc;strokeColor=#6c8ebf;" vertex="1" parent="1">
          <mxGeometry x="380" y="140" width="80" height="20" as="geometry" />
        </mxCell>
        <mxCell id="yHEGoj0oW-484SzzkgxT-15" value="" style="rounded=0;whiteSpace=wrap;html=1;fillColor=#dae8fc;strokeColor=#6c8ebf;" vertex="1" parent="1">
          <mxGeometry x="800" y="140" width="180" height="20" as="geometry" />
        </mxCell>
        <mxCell id="yHEGoj0oW-484SzzkgxT-16" value="" style="rounded=0;whiteSpace=wrap;html=1;fillColor=#fff2cc;strokeColor=#d6b656;" vertex="1" parent="1">
          <mxGeometry x="280" y="180" width="160" height="20" as="geometry" />
        </mxCell>
        <mxCell id="yHEGoj0oW-484SzzkgxT-17" value="" style="rounded=0;whiteSpace=wrap;html=1;fillColor=#fff2cc;strokeColor=#d6b656;" vertex="1" parent="1">
          <mxGeometry x="820" y="180" width="260" height="20" as="geometry" />
        </mxCell>
        <mxCell id="yHEGoj0oW-484SzzkgxT-18" value="" style="rounded=0;whiteSpace=wrap;html=1;fillColor=#d5e8d4;strokeColor=#82b366;" vertex="1" parent="1">
          <mxGeometry x="380" y="220" width="60" height="20" as="geometry" />
        </mxCell>
        <mxCell id="yHEGoj0oW-484SzzkgxT-20" value="" style="rounded=0;whiteSpace=wrap;html=1;fillColor=#d5e8d4;strokeColor=#82b366;" vertex="1" parent="1">
          <mxGeometry x="820" y="220" width="160" height="20" as="geometry" />
        </mxCell>
        <mxCell id="yHEGoj0oW-484SzzkgxT-21" value="Plage autorisÃ©e" style="text;html=1;align=right;verticalAlign=middle;whiteSpace=wrap;rounded=0;" vertex="1" parent="1">
          <mxGeometry x="30" y="140" width="90" height="30" as="geometry" />
        </mxCell>
        <mxCell id="yHEGoj0oW-484SzzkgxT-22" value="Heures" style="text;html=1;align=center;verticalAlign=middle;whiteSpace=wrap;rounded=0;" vertex="1" parent="1">
          <mxGeometry x="1046" y="256" width="90" height="30" as="geometry" />
        </mxCell>
        <mxCell id="yHEGoj0oW-484SzzkgxT-23" value="Horloge astro" style="text;html=1;align=right;verticalAlign=middle;whiteSpace=wrap;rounded=0;" vertex="1" parent="1">
          <mxGeometry x="30" y="180" width="90" height="30" as="geometry" />
        </mxCell>
        <mxCell id="yHEGoj0oW-484SzzkgxT-24" value="Eclairage effectif" style="text;html=1;align=right;verticalAlign=middle;whiteSpace=wrap;rounded=0;" vertex="1" parent="1">
          <mxGeometry x="10" y="220" width="110" height="30" as="geometry" />
        </mxCell>
        <mxCell id="yHEGoj0oW-484SzzkgxT-25" value="" style="endArrow=none;dashed=1;html=1;dashPattern=1 3;strokeWidth=2;rounded=0;" edge="1" parent="1">
          <mxGeometry width="50" height="50" relative="1" as="geometry">
            <mxPoint x="380" y="240" as="sourcePoint" />
            <mxPoint x="380" y="160" as="targetPoint" />
          </mxGeometry>
        </mxCell>
        <mxCell id="yHEGoj0oW-484SzzkgxT-26" value="" style="endArrow=none;dashed=1;html=1;dashPattern=1 3;strokeWidth=2;rounded=0;" edge="1" parent="1">
          <mxGeometry width="50" height="50" relative="1" as="geometry">
            <mxPoint x="440" y="246" as="sourcePoint" />
            <mxPoint x="440" y="159" as="targetPoint" />
          </mxGeometry>
        </mxCell>
        <mxCell id="yHEGoj0oW-484SzzkgxT-27" value="" style="endArrow=none;dashed=1;html=1;dashPattern=1 3;strokeWidth=2;rounded=0;" edge="1" parent="1">
          <mxGeometry width="50" height="50" relative="1" as="geometry">
            <mxPoint x="819" y="238.5" as="sourcePoint" />
            <mxPoint x="820" y="160" as="targetPoint" />
          </mxGeometry>
        </mxCell>
        <mxCell id="yHEGoj0oW-484SzzkgxT-28" value="" style="endArrow=none;dashed=1;html=1;dashPattern=1 3;strokeWidth=2;rounded=0;" edge="1" parent="1">
          <mxGeometry width="50" height="50" relative="1" as="geometry">
            <mxPoint x="979" y="238.5" as="sourcePoint" />
            <mxPoint x="980" y="160" as="targetPoint" />
          </mxGeometry>
        </mxCell>
        <mxCell id="yHEGoj0oW-484SzzkgxT-29" value="21 DÃ©cembre" style="text;html=1;align=center;verticalAlign=middle;whiteSpace=wrap;rounded=0;fontStyle=1;fontSize=14;" vertex="1" parent="1">
          <mxGeometry x="120" y="90" width="990" height="30" as="geometry" />
        </mxCell>
      </root>
    </mxGraphModel>
  </diagram>
  <diagram id="7QiYd71L87rX2gWvoztr" name="cablage">
    <mxGraphModel dx="1188" dy="631" grid="1" gridSize="10" guides="1" tooltips="1" connect="1" arrows="1" fold="1" page="1" pageScale="1" pageWidth="1169" pageHeight="827" math="0" shadow="0">
      <root>
        <mxCell id="0" />
        <mxCell id="1" parent="0" />
        <mxCell id="Iy6GydhXbqaswmvgHvnD-1" value="" style="html=1;shape=mxgraph.electrical.electro-mechanical.pushbutton;aspect=fixed;elSwitchState=off;" vertex="1" parent="1">
          <mxGeometry x="360" y="185" width="75" height="20" as="geometry" />
        </mxCell>
        <mxCell id="Iy6GydhXbqaswmvgHvnD-2" value="" style="html=1;shape=mxgraph.electrical.electro-mechanical.pushbutton;aspect=fixed;elSwitchState=off;" vertex="1" parent="1">
          <mxGeometry x="360" y="264" width="75" height="20" as="geometry" />
        </mxCell>
        <mxCell id="Iy6GydhXbqaswmvgHvnD-3" value="" style="shape=image;imageAspect=0;aspect=fixed;verticalLabelPosition=bottom;verticalAlign=top;image=https://media.crouzet.com/catalog/_photos_low-resolution/png/AU_LC_MS_SLIM_88983903_LQ.png;imageBorder=default;" vertex="1" parent="1">
          <mxGeometry x="480" y="320" width="210" height="210" as="geometry" />
        </mxCell>
        <mxCell id="Iy6GydhXbqaswmvgHvnD-4" value="" style="endArrow=none;html=1;rounded=0;strokeWidth=3;fillColor=#e51400;strokeColor=#B20000;" edge="1" parent="1">
          <mxGeometry width="50" height="50" relative="1" as="geometry">
            <mxPoint x="240" y="120" as="sourcePoint" />
            <mxPoint x="640" y="120" as="targetPoint" />
          </mxGeometry>
        </mxCell>
        <mxCell id="Iy6GydhXbqaswmvgHvnD-5" value="" style="endArrow=none;html=1;rounded=0;strokeWidth=3;fillColor=#0050ef;strokeColor=#001DBC;" edge="1" parent="1">
          <mxGeometry width="50" height="50" relative="1" as="geometry">
            <mxPoint x="240" y="100" as="sourcePoint" />
            <mxPoint x="670" y="100" as="targetPoint" />
          </mxGeometry>
        </mxCell>
        <mxCell id="Iy6GydhXbqaswmvgHvnD-6" value="" style="pointerEvents=1;verticalLabelPosition=bottom;shadow=0;dashed=0;align=center;html=1;verticalAlign=top;shape=mxgraph.electrical.electro-mechanical.relay;rotation=-90;" vertex="1" parent="1">
          <mxGeometry x="435" y="610" width="100" height="50" as="geometry" />
        </mxCell>
        <mxCell id="Iy6GydhXbqaswmvgHvnD-7" value="" style="pointerEvents=1;verticalLabelPosition=bottom;shadow=0;dashed=0;align=center;html=1;verticalAlign=top;shape=mxgraph.electrical.electro-mechanical.relay;rotation=-90;" vertex="1" parent="1">
          <mxGeometry x="500" y="610" width="100" height="50" as="geometry" />
        </mxCell>
        <mxCell id="Iy6GydhXbqaswmvgHvnD-8" value="" style="pointerEvents=1;verticalLabelPosition=bottom;shadow=0;dashed=0;align=center;html=1;verticalAlign=top;shape=mxgraph.electrical.electro-mechanical.relay;rotation=-90;" vertex="1" parent="1">
          <mxGeometry x="565" y="610" width="100" height="50" as="geometry" />
        </mxCell>
        <mxCell id="Iy6GydhXbqaswmvgHvnD-9" value="" style="pointerEvents=1;verticalLabelPosition=bottom;shadow=0;dashed=0;align=center;html=1;verticalAlign=top;shape=mxgraph.electrical.electro-mechanical.relay;rotation=-90;" vertex="1" parent="1">
          <mxGeometry x="630" y="610" width="100" height="50" as="geometry" />
        </mxCell>
        <mxCell id="Iy6GydhXbqaswmvgHvnD-10" value="I1" style="text;html=1;align=center;verticalAlign=middle;whiteSpace=wrap;rounded=0;" vertex="1" parent="1">
          <mxGeometry x="490" y="320" width="20" height="30" as="geometry" />
        </mxCell>
        <mxCell id="Iy6GydhXbqaswmvgHvnD-12" value="I2" style="text;html=1;align=center;verticalAlign=middle;whiteSpace=wrap;rounded=0;" vertex="1" parent="1">
          <mxGeometry x="520" y="320" width="20" height="30" as="geometry" />
        </mxCell>
        <mxCell id="Iy6GydhXbqaswmvgHvnD-13" value="L/+" style="text;html=1;align=center;verticalAlign=middle;whiteSpace=wrap;rounded=0;" vertex="1" parent="1">
          <mxGeometry x="630" y="320" width="20" height="30" as="geometry" />
        </mxCell>
        <mxCell id="Iy6GydhXbqaswmvgHvnD-14" value="N/-" style="text;html=1;align=center;verticalAlign=middle;whiteSpace=wrap;rounded=0;" vertex="1" parent="1">
          <mxGeometry x="660" y="320" width="20" height="30" as="geometry" />
        </mxCell>
        <mxCell id="Iy6GydhXbqaswmvgHvnD-15" value="" style="endArrow=none;html=1;rounded=0;strokeWidth=3;entryX=0.5;entryY=0;entryDx=0;entryDy=0;fillColor=#e51400;strokeColor=#B20000;" edge="1" parent="1" target="Iy6GydhXbqaswmvgHvnD-13">
          <mxGeometry width="50" height="50" relative="1" as="geometry">
            <mxPoint x="639.5" y="120" as="sourcePoint" />
            <mxPoint x="639.5" y="230.5" as="targetPoint" />
          </mxGeometry>
        </mxCell>
        <mxCell id="Iy6GydhXbqaswmvgHvnD-16" value="" style="endArrow=none;html=1;rounded=0;strokeWidth=3;fillColor=#0050ef;strokeColor=#001DBC;entryX=0.5;entryY=0;entryDx=0;entryDy=0;" edge="1" parent="1" target="Iy6GydhXbqaswmvgHvnD-14">
          <mxGeometry width="50" height="50" relative="1" as="geometry">
            <mxPoint x="670" y="100" as="sourcePoint" />
            <mxPoint x="1080" y="100" as="targetPoint" />
          </mxGeometry>
        </mxCell>
        <mxCell id="Iy6GydhXbqaswmvgHvnD-17" value="" style="endArrow=none;html=1;rounded=0;strokeWidth=3;fillColor=#e51400;strokeColor=#B20000;" edge="1" parent="1">
          <mxGeometry width="50" height="50" relative="1" as="geometry">
            <mxPoint x="359" y="120" as="sourcePoint" />
            <mxPoint x="360" y="280" as="targetPoint" />
          </mxGeometry>
        </mxCell>
        <mxCell id="Iy6GydhXbqaswmvgHvnD-18" value="" style="endArrow=none;html=1;rounded=0;strokeWidth=3;fillColor=#e51400;strokeColor=#B20000;" edge="1" parent="1">
          <mxGeometry width="50" height="50" relative="1" as="geometry">
            <mxPoint x="500" y="280" as="sourcePoint" />
            <mxPoint x="500.5" y="320" as="targetPoint" />
          </mxGeometry>
        </mxCell>
        <mxCell id="Iy6GydhXbqaswmvgHvnD-19" value="" style="endArrow=none;html=1;rounded=0;strokeWidth=3;fillColor=#e51400;strokeColor=#B20000;" edge="1" parent="1">
          <mxGeometry width="50" height="50" relative="1" as="geometry">
            <mxPoint x="529" y="200" as="sourcePoint" />
            <mxPoint x="528.5" y="320" as="targetPoint" />
          </mxGeometry>
        </mxCell>
        <mxCell id="Iy6GydhXbqaswmvgHvnD-20" value="" style="endArrow=none;html=1;rounded=0;strokeWidth=3;fillColor=#e51400;strokeColor=#B20000;exitX=1;exitY=0.8;exitDx=0;exitDy=0;" edge="1" parent="1" source="Iy6GydhXbqaswmvgHvnD-1">
          <mxGeometry width="50" height="50" relative="1" as="geometry">
            <mxPoint x="539" y="215" as="sourcePoint" />
            <mxPoint x="530" y="201" as="targetPoint" />
          </mxGeometry>
        </mxCell>
        <mxCell id="Iy6GydhXbqaswmvgHvnD-21" value="" style="endArrow=none;html=1;rounded=0;strokeWidth=3;fillColor=#e51400;strokeColor=#B20000;exitX=1;exitY=0.8;exitDx=0;exitDy=0;" edge="1" parent="1">
          <mxGeometry width="50" height="50" relative="1" as="geometry">
            <mxPoint x="435" y="279.5" as="sourcePoint" />
            <mxPoint x="500" y="280" as="targetPoint" />
          </mxGeometry>
        </mxCell>
        <mxCell id="Iy6GydhXbqaswmvgHvnD-22" value="Horloge ON / OFF *" style="text;html=1;align=center;verticalAlign=middle;whiteSpace=wrap;rounded=0;" vertex="1" parent="1">
          <mxGeometry x="360" y="155" width="82" height="30" as="geometry" />
        </mxCell>
        <mxCell id="Iy6GydhXbqaswmvgHvnD-23" value="Commande manuelle *" style="text;html=1;align=center;verticalAlign=middle;whiteSpace=wrap;rounded=0;" vertex="1" parent="1">
          <mxGeometry x="368" y="230" width="60" height="30" as="geometry" />
        </mxCell>
        <mxCell id="Iy6GydhXbqaswmvgHvnD-24" value="L/+" style="text;html=1;align=center;verticalAlign=middle;whiteSpace=wrap;rounded=0;" vertex="1" parent="1">
          <mxGeometry x="240" y="120" width="20" height="30" as="geometry" />
        </mxCell>
        <mxCell id="Iy6GydhXbqaswmvgHvnD-25" value="N/-" style="text;html=1;align=center;verticalAlign=middle;whiteSpace=wrap;rounded=0;" vertex="1" parent="1">
          <mxGeometry x="240" y="70" width="20" height="30" as="geometry" />
        </mxCell>
        <mxCell id="Iy6GydhXbqaswmvgHvnD-26" value="O1" style="text;html=1;align=center;verticalAlign=middle;whiteSpace=wrap;rounded=0;" vertex="1" parent="1">
          <mxGeometry x="490" y="500" width="20" height="30" as="geometry" />
        </mxCell>
        <mxCell id="Iy6GydhXbqaswmvgHvnD-27" value="O2" style="text;html=1;align=center;verticalAlign=middle;whiteSpace=wrap;rounded=0;" vertex="1" parent="1">
          <mxGeometry x="535" y="500" width="20" height="30" as="geometry" />
        </mxCell>
        <mxCell id="Iy6GydhXbqaswmvgHvnD-28" value="O3" style="text;html=1;align=center;verticalAlign=middle;whiteSpace=wrap;rounded=0;" vertex="1" parent="1">
          <mxGeometry x="600" y="500" width="20" height="30" as="geometry" />
        </mxCell>
        <mxCell id="Iy6GydhXbqaswmvgHvnD-29" value="O4" style="text;html=1;align=center;verticalAlign=middle;whiteSpace=wrap;rounded=0;" vertex="1" parent="1">
          <mxGeometry x="650" y="500" width="20" height="30" as="geometry" />
        </mxCell>
        <mxCell id="Iy6GydhXbqaswmvgHvnD-30" style="edgeStyle=orthogonalEdgeStyle;rounded=0;orthogonalLoop=1;jettySize=auto;html=1;exitX=0.5;exitY=1;exitDx=0;exitDy=0;entryX=0.985;entryY=0.49;entryDx=0;entryDy=0;entryPerimeter=0;fillColor=#e51400;strokeColor=#B20000;strokeWidth=2;endArrow=none;endFill=0;" edge="1" parent="1" source="Iy6GydhXbqaswmvgHvnD-26" target="Iy6GydhXbqaswmvgHvnD-6">
          <mxGeometry relative="1" as="geometry" />
        </mxCell>
        <mxCell id="Iy6GydhXbqaswmvgHvnD-31" style="edgeStyle=orthogonalEdgeStyle;rounded=0;orthogonalLoop=1;jettySize=auto;html=1;exitX=0.5;exitY=1;exitDx=0;exitDy=0;entryX=0.977;entryY=0.507;entryDx=0;entryDy=0;entryPerimeter=0;fillColor=#e51400;strokeColor=#B20000;strokeWidth=2;endArrow=none;endFill=0;" edge="1" parent="1" source="Iy6GydhXbqaswmvgHvnD-27" target="Iy6GydhXbqaswmvgHvnD-7">
          <mxGeometry relative="1" as="geometry" />
        </mxCell>
        <mxCell id="Iy6GydhXbqaswmvgHvnD-32" style="edgeStyle=orthogonalEdgeStyle;rounded=0;orthogonalLoop=1;jettySize=auto;html=1;exitX=0.5;exitY=1;exitDx=0;exitDy=0;entryX=0.977;entryY=0.523;entryDx=0;entryDy=0;entryPerimeter=0;fillColor=#e51400;strokeColor=#B20000;strokeWidth=2;endArrow=none;endFill=0;" edge="1" parent="1" source="Iy6GydhXbqaswmvgHvnD-28" target="Iy6GydhXbqaswmvgHvnD-8">
          <mxGeometry relative="1" as="geometry" />
        </mxCell>
        <mxCell id="Iy6GydhXbqaswmvgHvnD-33" style="edgeStyle=orthogonalEdgeStyle;rounded=0;orthogonalLoop=1;jettySize=auto;html=1;exitX=0.5;exitY=1;exitDx=0;exitDy=0;entryX=0.993;entryY=0.457;entryDx=0;entryDy=0;entryPerimeter=0;fillColor=#e51400;strokeColor=#B20000;strokeWidth=2;endArrow=none;endFill=0;" edge="1" parent="1" source="Iy6GydhXbqaswmvgHvnD-29" target="Iy6GydhXbqaswmvgHvnD-9">
          <mxGeometry relative="1" as="geometry" />
        </mxCell>
        <mxCell id="Iy6GydhXbqaswmvgHvnD-34" value="* ElÃ©ment optionnel" style="text;html=1;align=center;verticalAlign=middle;whiteSpace=wrap;rounded=0;fontSize=8;" vertex="1" parent="1">
          <mxGeometry x="240" y="570" width="80" height="30" as="geometry" />
        </mxCell>
      </root>
    </mxGraphModel>
  </diagram>
</mxfile>
